<svg width="42" height="42" viewBox="0 0 42 42" fill="none" xmlns="http://www.w3.org/2000/svg">
<path fill-rule="evenodd" clip-rule="evenodd" d="M42 31.75C42 37.2728 37.5228 41.75 32 41.75C26.4772 41.75 22 37.2728 22 31.75C22 26.2272 26.4772 21.75 32 21.75C37.5228 21.75 42 26.2272 42 31.75ZM24.4844 31.75C24.4844 30.9216 25.1559 30.25 25.9844 30.25H30.5V25.7344C30.5 24.9059 31.1716 24.2344 32 24.2344C32.8284 24.2344 33.5 24.9059 33.5 25.7344V30.25H38.0156C38.8441 30.25 39.5156 30.9216 39.5156 31.75C39.5156 32.5784 38.8441 33.25 38.0156 33.25H33.5V37.7656C33.5 38.5941 32.8284 39.2656 32 39.2656C31.1716 39.2656 30.5 38.5941 30.5 37.7656V33.25H25.9844C25.1559 33.25 24.4844 32.5784 24.4844 31.75Z" fill="#8B5CF6"/>
<path d="M11.3334 0.25C12.5299 0.25 13.5 1.22003 13.5 2.41669V4.58331H26.5V2.41669C26.5 1.22003 27.47 0.25 28.6666 0.25C29.8633 0.25 30.8334 1.22003 30.8334 2.41669V4.58331C35.6198 4.58331 39.5 8.4635 39.5 13.25V21.9167C38.2814 20.7803 36.8043 19.9915 35.1666 19.5V13.25C35.1666 10.8568 33.2267 8.91669 30.8334 8.91669H9.16663C6.77344 8.91669 4.83337 10.8568 4.83337 13.25V30.5833C4.83337 32.9766 6.77344 34.9167 9.16663 34.9167H20C20.5 37 20.8636 37.7814 22 39L9.16663 39.25C4.38025 39.25 0.5 35.3697 0.5 30.5833V13.25C0.5 8.4635 4.38025 4.58331 9.16663 4.58331V2.41669C9.16663 1.22003 10.1367 0.25 11.3334 0.25Z" fill="#8B5CF6"/>
<path d="M13.5 15.4167C13.5 16.6133 12.5299 17.5833 11.3334 17.5833C10.1367 17.5833 9.16663 16.6133 9.16663 15.4167C9.16663 14.22 10.1367 13.25 11.3334 13.25C12.5299 13.25 13.5 14.22 13.5 15.4167Z" fill="#8B5CF6"/>
<path d="M20 17.5833C21.1967 17.5833 22.1666 16.6133 22.1666 15.4167C22.1666 14.22 21.1967 13.25 20 13.25C18.8033 13.25 17.8334 14.22 17.8334 15.4167C17.8334 16.6133 18.8033 17.5833 20 17.5833Z" fill="#8B5CF6"/>
<path d="M30.8334 15.4167C30.8334 16.6133 29.8633 17.5833 28.6666 17.5833C27.47 17.5833 26.5 16.6133 26.5 15.4167C26.5 14.22 27.47 13.25 28.6666 13.25C29.8633 13.25 30.8334 14.22 30.8334 15.4167Z" fill="#8B5CF6"/>
<path d="M11.3334 26.25C12.5299 26.25 13.5 25.28 13.5 24.0833C13.5 22.8867 12.5299 21.9167 11.3334 21.9167C10.1367 21.9167 9.16663 22.8867 9.16663 24.0833C9.16663 25.28 10.1367 26.25 11.3334 26.25Z" fill="#8B5CF6"/>
</svg>
